# xmcd
#
# Track frame offsets: 
#        150
#        9505
#        19729
#        32649
#        45752
#        57031
#        68801
#        82758
#        92947
#        105105
#
# Disc length: 1558 seconds
#
# Revision: 2
# Processed by: cddbd v1.5.2PL0 Copyright (c) Steve Scherf et al.
# Submitted via: ExactAudioCopy v1.0b1
#
DISCID=6106140a
DTITLE=Porter Wagoner and Dolly Parton - Two Of A Kind
DYEAR=1971
DGENRE=Country
TTITLE0=The Pain of Loving You
TTITLE1=Possum Holler
TTITLE2=Is It Real
TTITLE3=The Flame
TTITLE4=The Fighting Kind
TTITLE5=Two of a Kind
TTITLE6=All I Need Is You
TTITLE7=Curse of the Wild Weed Flower
TTITLE8=Today, Tomorrow and Forever
TTITLE9=There'll Be Love
EXTD=
EXTT0=
EXTT1=
EXTT2=
EXTT3=
EXTT4=
EXTT5=
EXTT6=
EXTT7=
EXTT8=
EXTT9=
PLAYORDER=
